<svg xmlns="http://www.w3.org/2000/svg" style="display: none;"><symbol id="right-dark" viewBox="0 0 122 122"><title>right-dark</title><path d="M122,102V20c0-11-9-20-20-20H20C9,0,0,9,0,20v82c0,11,9,20,20,20h82C113,122,122,113,122,102z M108,102c0,3.3-2.7,6-6,6H20 c-3.3,0-6-2.7-6-6V20c0-3.3,2.7-6,6-6h82c3.3,0,6,2.7,6,6V102z"/><path d="M72.9,29.7c-1.9-1.9-4.4-2.9-7-2.9c-2.7,0-5.101,1-7,2.9C57,31.5,56,34,56,36.7c0,2.7,1,5.1,2.9,7l7.4,7.3H34.8 c-5.5,0-9.9,4.5-9.9,10s4.5,10,9.9,10h31.5l-7.4,7.3c-1.9,1.9-2.9,4.4-2.9,7c0,2.7,1,5.101,2.9,7c1.9,1.9,4.4,2.9,7,2.9 c2.699,0,5.1-1,7-2.9c0,0,23.8-23.8,24-24c1.899-1.899,3.1-4.2,3.199-6.7c0.2-2.7-0.8-5.5-2.6-7.5C97.5,54.2,97.5,54.2,72.9,29.7z"/></symbol><symbol id="left-dark" viewBox="0 0 122 122"><title>left-dark</title><g transform="matrix(-1,0,0,1,122,0)"> <g xmlns="http://www.w3.org/2000/svg"> <path d="M122,102V20c0-11-9-20-20-20H20C9,0,0,9,0,20v82c0,11,9,20,20,20h82C113,122,122,113,122,102z M108,102c0,3.3-2.7,6-6,6H20 c-3.3,0-6-2.7-6-6V20c0-3.3,2.7-6,6-6h82c3.3,0,6,2.7,6,6V102z" fill="#000000" data-original="#000000" style=""/> <path d="M72.9,29.7c-1.9-1.9-4.4-2.9-7-2.9c-2.7,0-5.101,1-7,2.9C57,31.5,56,34,56,36.7c0,2.7,1,5.1,2.9,7l7.4,7.3H34.8 c-5.5,0-9.9,4.5-9.9,10s4.5,10,9.9,10h31.5l-7.4,7.3c-1.9,1.9-2.9,4.4-2.9,7c0,2.7,1,5.101,2.9,7c1.9,1.9,4.4,2.9,7,2.9 c2.699,0,5.1-1,7-2.9c0,0,23.8-23.8,24-24c1.899-1.899,3.1-4.2,3.199-6.7c0.2-2.7-0.8-5.5-2.6-7.5C97.5,54.2,97.5,54.2,72.9,29.7z" fill="#000000" data-original="#000000" style=""/> </g> </g></symbol><symbol id="right-bright" viewBox="0 0 122 122"><title>right-bright</title><path d="M122,102V20c0-11-9-20-20-20H20C9,0,0,9,0,20v82c0,11,9,20,20,20h82C113,122,122,113,122,102z M108,102c0,3.3-2.7,6-6,6H20 c-3.3,0-6-2.7-6-6V20c0-3.3,2.7-6,6-6h82c3.3,0,6,2.7,6,6V102z" fill="#fedcae" data-original="#000000" style="" class=""/><path d="M72.9,29.7c-1.9-1.9-4.4-2.9-7-2.9c-2.7,0-5.101,1-7,2.9C57,31.5,56,34,56,36.7c0,2.7,1,5.1,2.9,7l7.4,7.3H34.8 c-5.5,0-9.9,4.5-9.9,10s4.5,10,9.9,10h31.5l-7.4,7.3c-1.9,1.9-2.9,4.4-2.9,7c0,2.7,1,5.101,2.9,7c1.9,1.9,4.4,2.9,7,2.9 c2.699,0,5.1-1,7-2.9c0,0,23.8-23.8,24-24c1.899-1.899,3.1-4.2,3.199-6.7c0.2-2.7-0.8-5.5-2.6-7.5C97.5,54.2,97.5,54.2,72.9,29.7z" fill="#fedcae" data-original="#000000" style="" class=""/></symbol><symbol id="left-bright" viewBox="0 0 122 122"><title>left-bright</title><g transform="matrix(-1,0,0,1,122,0)"> <g xmlns="http://www.w3.org/2000/svg"> <path d="M122,102V20c0-11-9-20-20-20H20C9,0,0,9,0,20v82c0,11,9,20,20,20h82C113,122,122,113,122,102z M108,102c0,3.3-2.7,6-6,6H20 c-3.3,0-6-2.7-6-6V20c0-3.3,2.7-6,6-6h82c3.3,0,6,2.7,6,6V102z" fill="#fedcae" data-original="#000000" style="" class=""/> <path d="M72.9,29.7c-1.9-1.9-4.4-2.9-7-2.9c-2.7,0-5.101,1-7,2.9C57,31.5,56,34,56,36.7c0,2.7,1,5.1,2.9,7l7.4,7.3H34.8 c-5.5,0-9.9,4.5-9.9,10s4.5,10,9.9,10h31.5l-7.4,7.3c-1.9,1.9-2.9,4.4-2.9,7c0,2.7,1,5.101,2.9,7c1.9,1.9,4.4,2.9,7,2.9 c2.699,0,5.1-1,7-2.9c0,0,23.8-23.8,24-24c1.899-1.899,3.1-4.2,3.199-6.7c0.2-2.7-0.8-5.5-2.6-7.5C97.5,54.2,97.5,54.2,72.9,29.7z" fill="#fedcae" data-original="#000000" style="" class=""/> </g> </g></symbol></svg>